<svg width="57" height="57" viewBox="0 0 57 57" fill="none" xmlns="http://www.w3.org/2000/svg">
<g clip-path="url(#clip0_1_599)">
<path d="M28.0643 2.33887V53.7905" stroke="#1A5A45" stroke-width="4.67742" stroke-linecap="round" stroke-linejoin="round"/>
<path d="M39.758 11.6938H22.2177C20.0468 11.6938 17.9648 12.5562 16.4297 14.0913C14.8946 15.6264 14.0322 17.7084 14.0322 19.8793C14.0322 22.0503 14.8946 24.1323 16.4297 25.6673C17.9648 27.2024 20.0468 28.0648 22.2177 28.0648H33.9113C36.0822 28.0648 38.1642 28.9272 39.6993 30.4623C41.2343 31.9974 42.0967 34.0794 42.0967 36.2503C42.0967 38.4212 41.2343 40.5032 39.6993 42.0383C38.1642 43.5734 36.0822 44.4358 33.9113 44.4358H14.0322" stroke="#1A5A45" stroke-width="4.67742" stroke-linecap="round" stroke-linejoin="round"/>
</g>
<defs>
<clipPath id="clip0_1_599">
<rect width="56.129" height="56.129" fill="white"/>
</clipPath>
</defs>
</svg>
